<svg width="32" height="30" viewBox="0 0 32 30" fill="none" xmlns="http://www.w3.org/2000/svg">
<path fill-rule="evenodd" clip-rule="evenodd" d="M0.914494 0.118687C0.611255 0.274688 0.369486 0.659101 0.371843 0.981621C0.373898 1.26866 0.576078 1.64685 0.801588 1.7855C0.913527 1.85441 1.91632 2.26813 3.02997 2.70495C4.14362 3.14177 5.07268 3.51802 5.09456 3.54105C5.11638 3.56408 5.77937 7.10521 6.5679 11.4102C7.35637 15.7152 8.03677 19.3242 8.07986 19.4302C8.12302 19.5361 8.27322 19.7061 8.41375 19.8079C8.6349 19.9682 8.72079 19.993 9.05304 19.993C9.26417 19.993 9.43685 20.0094 9.43685 20.0296C9.43685 20.0496 9.19206 20.7448 8.89287 21.5744C8.33112 23.132 8.27134 23.4151 8.43647 23.7344C8.58123 24.0145 8.80825 24.1195 9.35296 24.1584L9.84719 24.1937L9.60917 24.5866C9.29258 25.1092 9.17435 25.5334 9.17121 26.1581C9.16426 27.5202 10.0842 28.6738 11.4593 29.0272C12.4122 29.2721 13.4288 28.9797 14.1851 28.2434C14.7825 27.6616 15.0788 26.9559 15.0737 26.1264C15.0696 25.4558 14.8953 24.9032 14.5371 24.4244C14.4579 24.3186 14.3931 24.2166 14.3931 24.1978C14.3931 24.1789 15.8379 24.1635 17.6037 24.1635H20.8143L20.6648 24.36C19.7858 25.5144 19.9125 27.1917 20.9577 28.2368C21.4783 28.7575 22.3372 29.1212 23.0402 29.1189C24.3095 29.1146 25.5106 28.2112 25.8854 26.9786C26.1456 26.1233 25.959 25.087 25.4139 24.36L25.2666 24.1635L25.7985 24.1634C26.1855 24.1633 26.387 24.1345 26.5377 24.0576C27.1374 23.7518 27.1693 22.961 26.5956 22.6222C26.394 22.5032 26.2676 22.5011 18.3672 22.4854C13.9541 22.4766 10.3435 22.4602 10.3435 22.449C10.3435 22.4131 11.0548 20.4457 11.1512 20.2151L11.244 19.993H18.835C26.3236 19.993 26.4292 19.9914 26.6645 19.8713C26.8192 19.7924 26.9464 19.6646 27.0265 19.5077C27.2008 19.1659 31.3169 6.3058 31.3169 6.10277C31.3169 5.79252 31.0697 5.40877 30.773 5.25827C30.5045 5.1221 30.375 5.1149 20.7396 4.70112L10.9781 4.28195L10.7062 4.41595C10.3437 4.59468 10.1622 4.87531 10.1622 5.25706C10.1622 5.42002 10.202 5.63029 10.2506 5.72446C10.3741 5.96315 10.6734 6.20069 10.9043 6.24318C11.0114 6.26288 15.106 6.45183 20.0035 6.66307C24.9011 6.87426 28.9211 7.06 28.9369 7.07583C28.9527 7.09167 28.1818 9.54889 27.2237 12.5364L25.4819 17.9682L17.6473 17.9835L9.81274 17.9988L9.77932 17.8627C9.76094 17.7877 9.11705 14.2993 8.34853 10.1107C7.46813 5.31249 6.91345 2.43024 6.8492 2.31999C6.79305 2.22371 6.67724 2.09285 6.59177 2.02915C6.36397 1.85936 1.71233 0.0359411 1.42825 0.00511555C1.25509 -0.0137424 1.1093 0.0185337 0.914494 0.118687ZM12.6271 24.9223C13.5148 25.2931 13.7027 26.4761 12.9755 27.1147C12.6869 27.368 12.5061 27.436 12.1198 27.436C11.7357 27.436 11.4571 27.3229 11.1943 27.0601C10.9272 26.7931 10.827 26.5385 10.827 26.1274C10.827 25.1996 11.7737 24.5658 12.6271 24.9223ZM23.7755 25.0431C24.0752 25.2508 24.3661 25.7647 24.3661 26.0864C24.3661 26.8299 23.7893 27.4342 23.0743 27.4399C21.9675 27.4487 21.3495 26.2801 21.9799 25.3706C22.3617 24.8196 23.2258 24.662 23.7755 25.0431Z" fill="#13804c"/>
</svg>
