<svg width="28" height="29" viewBox="0 0 28 29" fill="none" xmlns="http://www.w3.org/2000/svg">
<path fill-rule="evenodd" clip-rule="evenodd" d="M12.5072 0.693396C5.92645 1.39827 0.799493 6.50371 0.0520041 13.0963C-0.0538908 14.0305 0.00909001 15.9656 0.176152 16.9104C0.696862 19.8552 2.12771 22.5425 4.2577 24.5761C6.30796 26.5336 8.77177 27.7848 11.5401 28.2743C12.4848 28.4413 14.42 28.5043 15.3541 28.3984C20.517 27.813 24.8373 24.5545 26.7979 19.7671C27.1542 18.897 27.4479 17.8733 27.6262 16.8801C27.7498 16.1919 27.7673 15.903 27.7673 14.5531C27.7673 13.2032 27.7498 12.9143 27.6262 12.2261C26.5302 6.1199 21.7523 1.5472 15.6295 0.744591C14.9797 0.659367 13.1107 0.628723 12.5072 0.693396ZM15.2573 2.34643C18.9197 2.76451 22.185 4.7831 24.2119 7.88204C24.9665 9.03576 25.6484 10.6976 25.92 12.0448C26.4661 14.7525 26.1209 17.5096 24.9349 19.9139C24.4931 20.8096 24.2511 21.207 23.6964 21.9478L23.2961 22.4822L23.2576 21.8874C23.1969 20.9502 22.9778 20.4803 22.2735 19.777C21.4378 18.9424 20.1159 18.2075 17.9282 17.3614C17.2139 17.085 16.6428 16.7154 16.4845 16.4268C16.3937 16.2612 16.3729 16.1234 16.389 15.7922C16.4156 15.2443 16.5804 14.8967 17.2198 14.0393C18.0098 12.9802 18.552 11.7722 18.8343 10.443C18.9655 9.82507 18.9814 8.25508 18.8623 7.69291C18.4903 5.93797 17.55 4.67678 16.1529 4.05894C14.9499 3.52693 13.1278 3.51013 11.8558 4.01929C10.4857 4.56781 9.43766 5.82718 9.05022 7.3907C8.85197 8.1909 8.85312 9.78343 9.05264 10.6799C9.33805 11.9623 9.87762 13.1006 10.7815 14.3272C11.0941 14.7514 11.3821 15.1963 11.4216 15.3158C11.461 15.4353 11.4817 15.6929 11.4676 15.8883C11.4226 16.5091 11.1228 16.7545 9.69659 17.3382C8.96542 17.6374 7.32151 18.5291 6.49315 19.0758C5.79299 19.5378 5.11362 20.1926 4.87832 20.6321C4.66006 21.0398 4.52878 21.5649 4.52878 22.0304C4.52878 22.2395 4.50835 22.4101 4.48345 22.4094C4.41062 22.4074 3.71511 21.4563 3.3785 20.8985C1.26411 17.394 1.04471 12.9352 2.80648 9.27184C4.61703 5.50702 8.15798 2.93417 12.2956 2.37714C13.0337 2.27777 14.5209 2.26236 15.2573 2.34643Z" fill="#13804c"/>
</svg>
